<?xml version="1.0" encoding="UTF-8" standalone="no"?>
<!-- Created with Inkscape (http://www.inkscape.org/) -->
<svg version="1.1" id="svg2" xml:space="preserve" viewBox="0 0 620.28003 238.10667" sodipodi:docname="OSU-Engineering-Vert-RGBHEX.eps" xmlns:inkscape="http://www.inkscape.org/namespaces/inkscape" xmlns:sodipodi="http://sodipodi.sourceforge.net/DTD/sodipodi-0.dtd" xmlns="http://www.w3.org/2000/svg" xmlns:svg="http://www.w3.org/2000/svg"><defs id="defs6"/>
<style xmlns="http://www.w3.org/2000/svg">.cls-1{fill:#bb0000;}.cls-2{fill:#000000;}</style><g id="g8" inkscape:groupmode="layer" inkscape:label="ink_ext_XXXXXX" transform="matrix(1.3333333,0,0,-1.3333333,0,238.10667)"><g id="g10" transform="scale(0.1)"><path d="m 906.566,204.449 c 0,49.199 36.247,82.801 82.329,82.801 28.325,0 48.005,-13.441 60.725,-31.68 l -16.56,-9.359 c -9.12,13.668 -25.93,23.277 -44.165,23.277 -35.043,0 -61.688,-26.636 -61.688,-65.039 0,-37.929 26.645,-65.058 61.688,-65.058 18.235,0 35.045,9.847 44.165,23.281 l 16.8,-9.121 c -13.44,-18.473 -32.64,-31.91 -60.965,-31.91 -46.082,0 -82.329,33.589 -82.329,82.808" class="cls-2" id="path12"/><path d="m 1201.3,204.449 c 0,37.442 -23.28,65.039 -59.04,65.039 -36.01,0 -58.81,-27.597 -58.81,-65.039 0,-37.199 22.8,-65.058 58.81,-65.058 35.76,0 59.04,27.859 59.04,65.058 z m -138.49,0 c 0,47.27 32.16,82.801 79.45,82.801 47.28,0 79.68,-35.531 79.68,-82.801 0,-47.277 -32.4,-82.808 -79.68,-82.808 -47.29,0 -79.45,35.531 -79.45,82.808" class="cls-2" id="path14"/><path d="m 1244.24,124.512 v 160.097 h 19.93 V 142.281 h 74.4 v -17.769 h -94.33" class="cls-2" id="path16"/><path d="m 1356.57,124.512 v 160.097 h 19.92 V 142.281 h 74.41 v -17.769 h -94.33" class="cls-2" id="path18"/><path d="m 1471.53,124.512 v 160.097 h 104.89 v -17.757 h -84.97 V 215.25 h 83.29 v -17.77 h -83.29 v -55.199 h 84.97 v -17.769 h -104.89" class="cls-2" id="path20"/><path d="m 1595.61,204.449 c 0,49.922 36.72,82.801 82.32,82.801 28.56,0 48.25,-12.488 62.17,-29.77 l -15.84,-10.082 c -10.09,12.973 -27.13,22.09 -46.33,22.09 -35.04,0 -61.68,-26.636 -61.68,-65.039 0,-37.929 26.64,-65.058 61.68,-65.058 19.2,0 35.04,9.121 43.21,17.289 v 32.402 h -55.21 v 17.758 h 74.89 v -57.602 c -14.88,-16.797 -36.72,-27.847 -62.89,-27.847 -45.6,0 -82.32,33.371 -82.32,83.058" class="cls-2" id="path22"/><path d="m 1767.2,124.512 v 160.097 h 104.89 v -17.757 h -84.97 V 215.25 h 83.29 v -17.77 h -83.29 v -55.199 h 84.97 V 124.512 H 1767.2" class="cls-2" id="path24"/><path d="m 2085.93,204.449 c 0,37.442 -23.28,65.039 -59.04,65.039 -36.01,0 -58.81,-27.597 -58.81,-65.039 0,-37.199 22.8,-65.058 58.81,-65.058 35.76,0 59.04,27.859 59.04,65.058 z m -138.49,0 c 0,47.27 32.16,82.801 79.45,82.801 47.28,0 79.69,-35.531 79.69,-82.801 0,-47.277 -32.41,-82.808 -79.69,-82.808 -47.29,0 -79.45,35.531 -79.45,82.808" class="cls-2" id="path26"/><path d="m 2131.52,124.512 v 160.097 h 104.89 v -17.757 h -84.97 V 215.25 h 83.29 v -17.77 h -83.29 v -72.968 h -19.92" class="cls-2" id="path28"/><path d="m 2313.92,124.512 v 160.097 h 104.89 v -17.757 h -84.97 V 215.25 h 83.29 v -17.77 h -83.29 v -55.199 h 84.97 v -17.769 h -104.89" class="cls-2" id="path30"/><path d="m 2557.76,124.512 -93.37,127.699 V 124.512 h -19.92 v 160.097 h 20.4 l 92.17,-125.058 v 125.058 h 19.92 V 124.512 h -19.2" class="cls-2" id="path32"/><path d="m 2601.91,204.449 c 0,49.922 36.73,82.801 82.33,82.801 28.57,0 48.25,-12.488 62.17,-29.77 l -15.85,-10.082 c -10.08,12.973 -27.12,22.09 -46.32,22.09 -35.05,0 -61.69,-26.636 -61.69,-65.039 0,-37.929 26.64,-65.058 61.69,-65.058 19.2,0 35.04,9.121 43.21,17.289 v 32.402 h -55.21 v 17.758 h 74.88 v -57.602 c -14.88,-16.797 -36.71,-27.847 -62.88,-27.847 -45.6,0 -82.33,33.371 -82.33,83.058" class="cls-2" id="path34"/><path d="m 2773.51,124.512 v 160.097 h 19.92 V 124.512 h -19.92" class="cls-2" id="path36"/><path d="M 2938.17,124.512 2844.8,252.211 V 124.512 h -19.92 v 160.097 h 20.4 l 92.17,-125.058 v 125.058 h 19.92 V 124.512 h -19.2" class="cls-2" id="path38"/><path d="m 2988.8,124.512 v 160.097 h 104.9 v -17.757 h -84.97 V 215.25 h 83.29 v -17.77 h -83.29 v -55.199 h 84.97 v -17.769 h -104.9" class="cls-2" id="path40"/><path d="m 3119.35,124.512 v 160.097 h 104.89 v -17.757 h -84.97 V 215.25 h 83.29 v -17.77 h -83.29 v -55.199 h 84.97 v -17.769 h -104.89" class="cls-2" id="path42"/><path d="m 3344,236.371 c 0,18.238 -13.2,30.481 -32.17,30.481 h -42 v -61.211 h 42 c 18.97,0 32.17,12.718 32.17,30.73 z m -1.45,-111.859 -40.55,63.609 h -32.17 v -63.609 h -19.92 v 160.097 h 64.32 c 29.29,0 50.4,-18.711 50.4,-48.238 0,-28.812 -19.92,-44.652 -41.75,-46.57 l 43.2,-65.289 h -23.53" class="cls-2" id="path44"/><path d="m 3390.06,124.512 v 160.097 h 19.93 V 124.512 h -19.93" class="cls-2" id="path46"/><path d="m 3554.72,124.512 -93.37,127.699 V 124.512 h -19.92 v 160.097 h 20.4 L 3554,159.551 v 125.058 h 19.92 V 124.512 h -19.2" class="cls-2" id="path48"/><path d="m 3598.87,204.449 c 0,49.922 36.73,82.801 82.34,82.801 28.56,0 48.24,-12.488 62.16,-29.77 l -15.85,-10.082 c -10.07,12.973 -27.11,22.09 -46.31,22.09 -35.05,0 -61.69,-26.636 -61.69,-65.039 0,-37.929 26.64,-65.058 61.69,-65.058 19.2,0 35.04,9.121 43.2,17.289 v 32.402 h -55.21 v 17.758 h 74.89 v -57.602 c -14.89,-16.797 -36.72,-27.847 -62.88,-27.847 -45.61,0 -82.34,33.371 -82.34,83.058" class="cls-2" id="path50"/><path d="m 192.18,750.41 -4.36,30.192 H 132.539 V 585.25 l 29.453,-4.352 V 562.34 H 57.2422 v 18.558 l 29.4531,4.352 V 780.602 H 31.4141 L 27.0547,750.41 H 7.39844 v 55.645 H 211.836 V 750.41 H 192.18" class="cls-2" id="path52"/><path d="m 343.867,562.34 v 17.461 l 27.281,4.379 v 66.558 h -72.75 V 584.18 l 27.282,-4.379 V 562.34 h -99.297 v 17.461 l 28.375,4.379 v 147.3 l -28.375,4.379 v 17.461 h 99.297 v -17.461 l -27.282,-4.379 v -57.46 h 72.75 v 57.46 l -27.281,4.379 v 17.461 h 99.297 v -17.461 l -28.359,-4.379 v -147.3 l 28.359,-4.379 V 562.34 h -99.297" class="cls-2" id="path54"/><path d="M 629.039,562.34 H 464.258 v 17.461 l 28.375,4.379 v 147.3 l -28.375,4.379 v 17.461 h 164.781 v -50.57 h -18.547 l -4.375,27.281 h -69.828 v -56.75 h 43.645 l 4.375,24.379 h 16.355 v -70.57 h -16.355 l -4.375,24.371 h -43.645 v -65.84 h 69.828 l 4.375,27.289 h 18.547 v -50.57" class="cls-2" id="path56"/><path d="m 861.105,783.871 c -40.378,0 -61.117,-32.391 -61.117,-99.301 0,-67.308 20,-100.039 60.379,-100.039 40.391,0 61.11,32.379 61.11,99.301 0,67.297 -20,100.039 -60.372,100.039 z m -0.378,-225.883 c -75.661,0 -108.75,45.102 -108.75,126.934 0,81.488 33.453,125.508 109.128,125.508 75.653,0 108.762,-45.121 108.762,-126.95 0,-81.492 -33.472,-125.492 -109.14,-125.492" class="cls-2" id="path58"/><path d="m 1106.99,562.34 v 17.461 l 27.27,4.379 v 66.558 h -72.74 V 584.18 l 27.28,-4.379 V 562.34 h -99.308 v 17.461 l 28.378,4.379 v 147.3 l -28.378,4.379 v 17.461 h 99.308 v -17.461 l -27.28,-4.379 v -57.46 h 72.74 v 57.46 l -27.27,4.379 v 17.461 h 99.3 v -17.461 l -28.37,-4.379 v -147.3 l 28.37,-4.379 V 562.34 h -99.3" class="cls-2" id="path60"/><path d="m 1229.93,562.34 v 17.461 l 28.38,4.379 v 147.3 l -28.38,4.379 v 17.461 h 100.39 v -17.461 l -28.38,-4.379 v -147.3 l 28.38,-4.379 V 562.34 h -100.39" class="cls-2" id="path62"/><path d="m 1438.35,731.48 c -30.56,0 -46.92,-22.179 -46.92,-73.468 0,-51.641 15.64,-74.203 46.19,-74.203 30.56,0 47.29,22.191 47.29,73.472 0,51.649 -16.01,74.199 -46.56,74.199 z m -0.36,-172.769 c -64.39,0 -92.39,36.019 -92.39,99.301 0,63.297 28.36,98.578 92.75,98.578 64.37,0 92.39,-36.02 92.39,-99.309 0,-63.301 -28.37,-98.57 -92.75,-98.57" class="cls-2" id="path64"/><path d="m 1729.7,557.988 c -42.19,0 -76.02,14.543 -76.02,14.543 v 52.02 h 20.73 l 4.72,-33.481 c 0,0 15.65,-5.449 43.3,-5.449 28.36,0 53.83,9.461 53.83,40.391 0,27.988 -19.64,32 -43.66,40 -38.19,12.738 -78.56,23.66 -78.56,76.019 0,42.571 26.56,68.399 82.2,68.399 25.47,0 52.02,-5.832 72.75,-13.828 v -48.75 h -20.73 l -4.72,31.289 c 0,0 -21.83,4.73 -42.94,4.73 -21.09,0 -42.92,-7.281 -42.92,-35.289 0,-60.742 122.23,-20.73 122.23,-117.863 0,-45.821 -29.82,-72.731 -90.21,-72.731" class="cls-2" id="path66"/><path d="m 1992.32,700.57 -4.36,29.461 h -42.2 V 584.18 l 28.37,-4.379 V 562.34 h -100.39 v 17.461 l 28.38,4.379 v 145.851 h -42.21 l -4.35,-29.461 h -18.57 v 52.75 h 173.88 v -52.75 h -18.55" class="cls-2" id="path68"/><path d="m 2105.05,716.582 -27.64,-75.66 h 55.3 z m 22.57,-154.242 v 17.461 l 27.26,4.379 -13.43,34.55 h -72.75 l -13.48,-34.55 27.29,-4.379 V 562.34 h -83.3 v 17.461 l 27.28,4.379 65.47,169.14 h 41.83 l 65.48,-169.14 27.28,-4.379 V 562.34 h -98.93" class="cls-2" id="path70"/><path d="m 2370.21,700.57 -4.38,29.461 h -42.18 V 584.18 l 28.37,-4.379 V 562.34 h -100.4 v 17.461 l 28.37,4.379 v 145.851 h -42.2 l -4.36,-29.461 h -18.55 v 52.75 h 173.87 v -52.75 h -18.54" class="cls-2" id="path72"/><path d="m 2570.26,562.34 h -164.79 v 17.461 l 28.38,4.379 v 147.3 l -28.38,4.379 v 17.461 h 164.79 v -50.57 h -18.56 l -4.37,27.281 h -69.83 v -56.75 h 43.65 l 4.37,24.379 h 16.36 v -70.57 h -16.36 l -4.37,24.371 h -43.65 v -65.84 h 69.83 l 4.37,27.289 h 18.56 v -50.57" class="cls-2" id="path74"/><path d="M 2902.35,783.141 V 658.738 c 0,-41.828 -2.54,-60.008 -22.19,-79.656 -14.18,-14.184 -37.46,-21.094 -72.01,-21.094 -34.2,0 -59.66,9.453 -75.67,25.453 -20.72,20.739 -18.55,51.661 -18.55,78.571 v 121.129 l -29.47,4.359 v 18.555 h 104.76 V 787.5 l -29.47,-4.359 v -142.59 c 0,-40.012 22.19,-56.02 56.39,-56.02 18.2,0 33.1,3.629 42.91,14.199 8.74,9.079 13.47,23.258 13.47,41.821 v 142.59 l -29.47,4.359 v 18.555 h 88.75 V 787.5 l -29.45,-4.359" class="cls-2" id="path76"/><path d="M 3131.86,731.48 V 562.34 h -34.18 l -97.13,136.41 V 584.18 l 28.38,-4.379 V 562.34 h -85.49 v 17.461 l 28.38,4.379 v 147.3 l -28.38,4.379 v 17.461 h 66.58 l 93.11,-130.23 v 108.39 l -28.36,4.379 v 17.461 h 85.47 v -17.461 l -28.38,-4.379" class="cls-2" id="path78"/><path d="m 3182.79,562.34 v 17.461 l 28.37,4.379 v 147.3 l -28.37,4.379 v 17.461 h 100.39 v -17.461 l -28.37,-4.379 v -147.3 l 28.37,-4.379 V 562.34 h -100.39" class="cls-2" id="path80"/><path d="m 3496.33,731.48 -63.65,-169.14 h -42.21 l -63.65,169.14 -27.26,4.379 v 17.461 h 98.92 v -17.461 l -27.28,-4.379 48.38,-130.941 48,130.941 -27.26,4.379 v 17.461 h 83.3 v -17.461 l -27.29,-4.379" class="cls-2" id="path82"/><path d="m 3703.31,562.34 h -164.79 v 17.461 l 28.36,4.379 v 147.3 l -28.36,4.379 v 17.461 h 164.79 v -50.57 h -18.57 l -4.36,27.281 h -69.85 v -56.75 h 43.65 l 4.38,24.379 h 16.37 v -70.57 h -16.37 l -4.38,24.371 h -43.65 v -65.84 h 69.85 l 4.36,27.289 h 18.57 v -50.57" class="cls-2" id="path84"/><path d="m 3850.24,724.219 c -7.29,7.633 -22.92,6.902 -32.74,6.902 h -12.73 V 670.02 h 7.64 c 12.36,0 29.47,-1.469 38.57,8.73 5.8,6.539 7.27,14.18 7.27,22.539 0,8.383 -1.82,16.371 -8.01,22.93 z M 3870.61,562.34 3852.79,606 c -12.02,29.102 -19.29,42.551 -44.74,42.551 h -3.28 V 584.18 l 27.29,-4.379 V 562.34 h -99.32 v 17.461 l 28.38,4.379 v 147.3 l -28.38,4.379 v 17.461 h 96.41 c 19.64,0 42.54,-1.09 57.47,-14.922 9.81,-9.097 15.28,-21.457 15.28,-35.648 0,-22.18 -14.57,-42.18 -34.57,-48.391 16,-11.988 29.83,-51.269 37.83,-70.179 l 27.31,-4.379 V 562.34 h -61.86" class="cls-2" id="path86"/><path d="m 4018.65,558.711 c -35.64,0 -65.47,11.988 -65.47,11.988 v 49.473 h 19.64 l 4.72,-31.274 c 0,0 13.83,-4 35.3,-4 23.28,0 41.09,7.641 41.09,28.372 0,14.539 -8.01,19.64 -20,23.64 -35.28,12.012 -80.39,17.09 -80.39,64.75 0,34.199 23.63,54.93 70.57,54.93 21.46,0 43.65,-4.36 62.93,-11.281 v -47.278 h -19.64 l -4.74,29.821 c 0,0 -15.99,3.628 -33.83,3.628 -17.83,0 -33.46,-6.179 -33.46,-24.718 0,-42.563 100.77,-14.192 100.77,-89.852 0,-37.109 -26.94,-58.199 -77.49,-58.199" class="cls-2" id="path88"/><path d="m 4121.59,562.34 v 17.461 l 28.38,4.379 v 147.3 l -28.38,4.379 V 753.32 H 4222 v -17.461 l -28.38,-4.379 V 584.18 L 4222,579.801 V 562.34 h -100.41" class="cls-2" id="path90"/><path d="m 4398.03,700.57 -4.37,29.461 h -42.19 V 584.18 l 28.38,-4.379 V 562.34 h -100.41 v 17.461 l 28.38,4.379 v 145.851 h -42.21 l -4.36,-29.461 h -18.54 v 52.75 h 173.88 v -52.75 h -18.56" class="cls-2" id="path92"/><path d="m 4617.37,731.48 -55.67,-86.21 v -61.09 l 28.38,-4.379 V 562.34 h -100.39 v 17.461 l 28.38,4.379 v 61.09 l -56.39,86.21 -27.28,4.379 v 17.461 h 101.12 v -17.461 l -27.27,-4.379 39.27,-61.832 38.93,61.832 -26.19,4.379 v 17.461 h 84.39 v -17.461 l -27.28,-4.379" class="cls-2" id="path94"/><path d="m 2592.33,1624.17 -128.09,127.76 H 2186.87 L 2058.1,1623.09 v -456.1 l 128.77,-128.85 h 277.37 l 128.09,127.43 z m -402.45,-56.37 51.83,51.83 h 167.95 l 51.83,-51.83 v -345.37 l -51.83,-51.82 h -167.95 l -51.83,51.82 v 345.37 0" class="cls-1" id="path96"/><path d="m 2174.83,1785.8 -146.71,-146.66 v -485.59 l 145.7,-147.53 h 303.43 l 145.69,146.66 0.99,486.46 -145.66,146.66 z m -133.54,-626.23 v 473.68 l 139.44,139.27 291.48,0.03 139.98,-139.3 -2.45,-474.68 -138.52,-138.52 -290.49,0.02 -139.44,139.5 v 0" class="cls-2" id="path98"/><path d="m 2440.77,1558.54 -41.14,41.15 h -148.48 l -40.58,-40.58 v -328.34 l 39.7,-39.69 h 151.14 l 39.36,39.37 z m -183.87,27.89 h 137.76 l 32.84,-32.85 v -317.6 l -31.62,-31.64 h -140.23 l -31.16,31.15 v 318.53 l 32.41,32.41 v 0" class="cls-2" id="path100"/><path d="m 0,429.941 v -13.82 h 4652.06 v 13.82 H 0 v 0" class="cls-2" id="path102"/></g></g></svg>